<?xml version="1.0" standalone="no"?><!DOCTYPE svg PUBLIC "-//W3C//DTD SVG 1.1//EN" "http://www.w3.org/Graphics/SVG/1.1/DTD/svg11.dtd"><svg t="1612678559831" class="icon" viewBox="0 0 1123 1024" version="1.1" xmlns="http://www.w3.org/2000/svg" p-id="2623" width="1123" height="1024" xmlns:xlink="http://www.w3.org/1999/xlink"><defs><style type="text/css"></style></defs><path d="M1035.189073 0H88.713366C38.437463 0 0 38.762146 0 89.537561v832.437073C0 969.752976 38.437463 1011.512195 88.713366 1011.512195h946.475707c47.32878 0 88.713366-41.75922 88.713366-89.537561V89.537561C1123.902439 41.784195 1085.464976 0 1035.189073 0zM318.439024 187.317073c49.751415 0 93.658537 40.984976 93.658537 93.658537S371.112585 374.634146 318.439024 374.634146C268.68761 374.634146 224.780488 333.649171 224.780488 280.97561s43.907122-93.658537 93.658536-93.658537z m-55.046244 674.341464c-8.491707 0-16.983415-2.922146-25.475121-8.791415-16.983415-14.710634-16.983415-35.21561-2.84722-52.84839l175.72839-255.300683c14.161171-14.635707 33.966829-17.607805 50.97522-5.844293l153.025561 111.491122 274.881561-305.176976c14.161171-14.685659 82.169756-90.961171 121.831024-5.894243v519.442731c0 2.922146-748.094439 2.922146-748.094439 2.922147z" fill="#E2E2E2" p-id="2624"></path></svg>